<mxfile host="www.draw.io" modified="2019-12-21T02:41:52.809Z" agent="Mozilla/5.0 (Macintosh; Intel Mac OS X 10_14_6) AppleWebKit/537.36 (KHTML, like Gecko) Chrome/79.0.3945.88 Safari/537.36" etag="LYBFDa7bOJMZX8iobQ0A" version="12.4.3" type="github" pages="1">
  <diagram name="Page-1" id="97916047-d0de-89f5-080d-49f4d83e522f">
    <mxGraphModel dx="1222" dy="909" grid="1" gridSize="10" guides="1" tooltips="1" connect="1" arrows="1" fold="1" page="1" pageScale="1.5" pageWidth="827" pageHeight="1169" background="#ffffff" math="0" shadow="0">
      <root>
        <mxCell id="0"/>
        <mxCell id="1" parent="0"/>
        <mxCell id="2" value="虚虫记" style="rounded=1;fillColor=#10739E;strokeColor=none;shadow=1;gradientColor=none;fontStyle=1;fontColor=#FFFFFF;fontSize=14;" parent="1" vertex="1">
          <mxGeometry x="1972" y="250" width="200" height="60" as="geometry"/>
        </mxCell>
        <mxCell id="3" value="混沌王" style="rounded=1;fillColor=#10739E;strokeColor=none;shadow=1;gradientColor=none;fontStyle=1;fontColor=#FFFFFF;fontSize=14;" parent="1" vertex="1">
          <mxGeometry x="1962" y="390" width="220" height="60" as="geometry"/>
        </mxCell>
        <mxCell id="4" value="人" style="rounded=1;fillColor=#10739E;strokeColor=none;shadow=1;gradientColor=none;fontStyle=1;fontColor=#FFFFFF;fontSize=14;" parent="1" vertex="1">
          <mxGeometry x="1602" y="500" width="200" height="60" as="geometry"/>
        </mxCell>
        <mxCell id="5" value="半人虫" style="rounded=1;fillColor=#10739E;strokeColor=none;shadow=1;gradientColor=none;fontStyle=1;fontColor=#FFFFFF;fontSize=14;" parent="1" vertex="1">
          <mxGeometry x="1842" y="500" width="200" height="60" as="geometry"/>
        </mxCell>
        <mxCell id="6" value="虫神" style="rounded=1;fillColor=#10739E;strokeColor=none;shadow=1;gradientColor=none;fontStyle=1;fontColor=#FFFFFF;fontSize=14;" parent="1" vertex="1">
          <mxGeometry x="2172" y="500" width="200" height="60" as="geometry"/>
        </mxCell>
        <mxCell id="7" value="外星光能" style="rounded=1;fillColor=#10739E;strokeColor=none;shadow=1;gradientColor=none;fontStyle=1;fontColor=#FFFFFF;fontSize=14;" parent="1" vertex="1">
          <mxGeometry x="2572" y="500" width="200" height="60" as="geometry"/>
        </mxCell>
        <mxCell id="8" value="场景" style="rounded=1;fillColor=#10739E;strokeColor=none;shadow=1;gradientColor=none;fontStyle=1;fontColor=#FFFFFF;fontSize=14;" parent="1" vertex="1">
          <mxGeometry x="1582" y="670" width="200" height="60" as="geometry"/>
        </mxCell>
        <mxCell id="9" value="都市" style="rounded=1;fillColor=#10739E;strokeColor=none;shadow=1;gradientColor=none;fontStyle=1;fontColor=#FFFFFF;fontSize=14;" parent="1" vertex="1">
          <mxGeometry x="1582" y="750" width="200" height="60" as="geometry"/>
        </mxCell>
        <mxCell id="10" value="山海" style="rounded=1;fillColor=#10739E;strokeColor=none;shadow=1;gradientColor=none;fontStyle=1;fontColor=#FFFFFF;fontSize=14;" parent="1" vertex="1">
          <mxGeometry x="1582" y="840" width="200" height="60" as="geometry"/>
        </mxCell>
        <mxCell id="11" value="结界" style="rounded=1;fillColor=#10739E;strokeColor=none;shadow=1;gradientColor=none;fontStyle=1;fontColor=#FFFFFF;fontSize=14;" parent="1" vertex="1">
          <mxGeometry x="1582" y="930" width="200" height="60" as="geometry"/>
        </mxCell>
        <mxCell id="12" value="灵界" style="rounded=1;fillColor=#10739E;strokeColor=none;shadow=1;gradientColor=none;fontStyle=1;fontColor=#FFFFFF;fontSize=14;" parent="1" vertex="1">
          <mxGeometry x="1582" y="1020" width="200" height="60" as="geometry"/>
        </mxCell>
        <mxCell id="13" value="技能" style="rounded=1;fillColor=#10739E;strokeColor=none;shadow=1;gradientColor=none;fontStyle=1;fontColor=#FFFFFF;fontSize=14;" parent="1" vertex="1">
          <mxGeometry x="1852" y="660" width="200" height="60" as="geometry"/>
        </mxCell>
        <mxCell id="14" value="机械能力" style="rounded=1;fillColor=#10739E;strokeColor=none;shadow=1;gradientColor=none;fontStyle=1;fontColor=#FFFFFF;fontSize=14;" parent="1" vertex="1">
          <mxGeometry x="1852" y="750" width="200" height="60" as="geometry"/>
        </mxCell>
        <mxCell id="15" value="法术能力" style="rounded=1;fillColor=#10739E;strokeColor=none;shadow=1;gradientColor=none;fontStyle=1;fontColor=#FFFFFF;fontSize=14;" parent="1" vertex="1">
          <mxGeometry x="1852" y="840" width="200" height="60" as="geometry"/>
        </mxCell>
        <mxCell id="16" value="体术" style="rounded=1;fillColor=#10739E;strokeColor=none;shadow=1;gradientColor=none;fontStyle=1;fontColor=#FFFFFF;fontSize=14;" parent="1" vertex="1">
          <mxGeometry x="1852" y="930" width="200" height="60" as="geometry"/>
        </mxCell>
        <mxCell id="18" value="家族" style="rounded=1;fillColor=#10739E;strokeColor=none;shadow=1;gradientColor=none;fontStyle=1;fontColor=#FFFFFF;fontSize=14;" parent="1" vertex="1">
          <mxGeometry x="2142" y="660" width="200" height="60" as="geometry"/>
        </mxCell>
        <mxCell id="19" value="机械家族" style="rounded=1;fillColor=#10739E;strokeColor=none;shadow=1;gradientColor=none;fontStyle=1;fontColor=#FFFFFF;fontSize=14;" parent="1" vertex="1">
          <mxGeometry x="2142" y="750" width="200" height="60" as="geometry"/>
        </mxCell>
        <mxCell id="20" value="外星家族" style="rounded=1;fillColor=#10739E;strokeColor=none;shadow=1;gradientColor=none;fontStyle=1;fontColor=#FFFFFF;fontSize=14;" parent="1" vertex="1">
          <mxGeometry x="2142" y="840" width="200" height="60" as="geometry"/>
        </mxCell>
        <mxCell id="21" value="修行家族" style="rounded=1;fillColor=#10739E;strokeColor=none;shadow=1;gradientColor=none;fontStyle=1;fontColor=#FFFFFF;fontSize=14;" parent="1" vertex="1">
          <mxGeometry x="2142" y="930" width="200" height="60" as="geometry"/>
        </mxCell>
        <mxCell id="22" value="魔族" style="rounded=1;fillColor=#10739E;strokeColor=none;shadow=1;gradientColor=none;fontStyle=1;fontColor=#FFFFFF;fontSize=14;" parent="1" vertex="1">
          <mxGeometry x="2142" y="1020" width="200" height="60" as="geometry"/>
        </mxCell>
        <mxCell id="23" value="大事件" style="rounded=1;fillColor=#10739E;strokeColor=none;shadow=1;gradientColor=none;fontStyle=1;fontColor=#FFFFFF;fontSize=14;" parent="1" vertex="1">
          <mxGeometry x="2392" y="660" width="200" height="60" as="geometry"/>
        </mxCell>
        <mxCell id="24" value="家族传承" style="rounded=1;fillColor=#10739E;strokeColor=none;shadow=1;gradientColor=none;fontStyle=1;fontColor=#FFFFFF;fontSize=14;" parent="1" vertex="1">
          <mxGeometry x="2392" y="750" width="200" height="60" as="geometry"/>
        </mxCell>
        <mxCell id="25" value="资源掠夺" style="rounded=1;fillColor=#10739E;strokeColor=none;shadow=1;gradientColor=none;fontStyle=1;fontColor=#FFFFFF;fontSize=14;" parent="1" vertex="1">
          <mxGeometry x="2392" y="840" width="200" height="60" as="geometry"/>
        </mxCell>
        <mxCell id="26" value="能力战" style="rounded=1;fillColor=#10739E;strokeColor=none;shadow=1;gradientColor=none;fontStyle=1;fontColor=#FFFFFF;fontSize=14;" parent="1" vertex="1">
          <mxGeometry x="2392" y="930" width="200" height="60" as="geometry"/>
        </mxCell>
        <mxCell id="27" value="天灾人祸" style="rounded=1;fillColor=#10739E;strokeColor=none;shadow=1;gradientColor=none;fontStyle=1;fontColor=#FFFFFF;fontSize=14;" parent="1" vertex="1">
          <mxGeometry x="2392" y="1020" width="200" height="60" as="geometry"/>
        </mxCell>
        <mxCell id="29" value="" style="edgeStyle=elbowEdgeStyle;elbow=vertical;strokeWidth=4;endArrow=block;endFill=1;fontStyle=1;strokeColor=#23445D;" parent="1" source="2" target="3" edge="1">
          <mxGeometry x="1322" y="210" width="100" height="100" as="geometry">
            <mxPoint x="1322" y="310" as="sourcePoint"/>
            <mxPoint x="1422" y="210" as="targetPoint"/>
          </mxGeometry>
        </mxCell>
        <mxCell id="30" value="" style="edgeStyle=elbowEdgeStyle;elbow=vertical;strokeWidth=4;endArrow=block;endFill=1;fontStyle=1;strokeColor=#23445D;" parent="1" source="3" target="5" edge="1">
          <mxGeometry x="1322" y="210" width="100" height="100" as="geometry">
            <mxPoint x="1322" y="310" as="sourcePoint"/>
            <mxPoint x="1422" y="210" as="targetPoint"/>
          </mxGeometry>
        </mxCell>
        <mxCell id="31" value="" style="edgeStyle=elbowEdgeStyle;elbow=vertical;strokeWidth=4;endArrow=block;endFill=1;fontStyle=1;strokeColor=#23445D;" parent="1" source="3" target="4" edge="1">
          <mxGeometry x="1322" y="210" width="100" height="100" as="geometry">
            <mxPoint x="1322" y="310" as="sourcePoint"/>
            <mxPoint x="1422" y="210" as="targetPoint"/>
          </mxGeometry>
        </mxCell>
        <mxCell id="32" value="" style="edgeStyle=elbowEdgeStyle;elbow=vertical;strokeWidth=4;endArrow=block;endFill=1;fontStyle=1;strokeColor=#23445D;" parent="1" source="3" target="6" edge="1">
          <mxGeometry x="1322" y="210" width="100" height="100" as="geometry">
            <mxPoint x="1322" y="310" as="sourcePoint"/>
            <mxPoint x="1422" y="210" as="targetPoint"/>
          </mxGeometry>
        </mxCell>
        <mxCell id="33" value="" style="edgeStyle=elbowEdgeStyle;elbow=vertical;strokeWidth=4;endArrow=block;endFill=1;fontStyle=1;dashed=1;strokeColor=#23445D;" parent="1" source="2" target="7" edge="1">
          <mxGeometry x="1322" y="210" width="100" height="100" as="geometry">
            <mxPoint x="1322" y="310" as="sourcePoint"/>
            <mxPoint x="1422" y="210" as="targetPoint"/>
            <Array as="points">
              <mxPoint x="2362" y="340"/>
            </Array>
          </mxGeometry>
        </mxCell>
        <mxCell id="34" value="" style="edgeStyle=elbowEdgeStyle;elbow=vertical;strokeWidth=4;endArrow=block;endFill=1;fontStyle=1;strokeColor=#23445D;" parent="1" source="3" target="8" edge="1">
          <mxGeometry x="1322" y="210" width="100" height="100" as="geometry">
            <mxPoint x="1322" y="310" as="sourcePoint"/>
            <mxPoint x="1422" y="210" as="targetPoint"/>
            <Array as="points">
              <mxPoint x="1852" y="600"/>
            </Array>
          </mxGeometry>
        </mxCell>
        <mxCell id="37" value="" style="edgeStyle=elbowEdgeStyle;elbow=vertical;strokeWidth=4;endArrow=block;endFill=1;fontStyle=1;strokeColor=#23445D;" parent="1" source="3" target="23" edge="1">
          <mxGeometry x="1322" y="210" width="100" height="100" as="geometry">
            <mxPoint x="1322" y="310" as="sourcePoint"/>
            <mxPoint x="1422" y="210" as="targetPoint"/>
            <Array as="points">
              <mxPoint x="2272" y="600"/>
            </Array>
          </mxGeometry>
        </mxCell>
        <mxCell id="38" value="" style="edgeStyle=elbowEdgeStyle;elbow=vertical;strokeWidth=4;endArrow=block;endFill=1;fontStyle=1;strokeColor=#23445D;" parent="1" source="8" target="9" edge="1">
          <mxGeometry x="1362" y="210" width="100" height="100" as="geometry">
            <mxPoint x="1362" y="310" as="sourcePoint"/>
            <mxPoint x="1462" y="210" as="targetPoint"/>
          </mxGeometry>
        </mxCell>
        <mxCell id="39" value="" style="edgeStyle=elbowEdgeStyle;elbow=vertical;strokeWidth=4;endArrow=block;endFill=1;fontStyle=1;strokeColor=#23445D;" parent="1" source="9" target="10" edge="1">
          <mxGeometry x="1362" y="220" width="100" height="100" as="geometry">
            <mxPoint x="1362" y="320" as="sourcePoint"/>
            <mxPoint x="1462" y="220" as="targetPoint"/>
          </mxGeometry>
        </mxCell>
        <mxCell id="40" value="" style="edgeStyle=elbowEdgeStyle;elbow=vertical;strokeWidth=4;endArrow=block;endFill=1;fontStyle=1;strokeColor=#23445D;" parent="1" source="10" target="11" edge="1">
          <mxGeometry x="1362" y="230" width="100" height="100" as="geometry">
            <mxPoint x="1362" y="330" as="sourcePoint"/>
            <mxPoint x="1462" y="230" as="targetPoint"/>
          </mxGeometry>
        </mxCell>
        <mxCell id="41" value="" style="edgeStyle=elbowEdgeStyle;elbow=vertical;strokeWidth=4;endArrow=block;endFill=1;fontStyle=1;strokeColor=#23445D;" parent="1" source="11" target="12" edge="1">
          <mxGeometry x="1362" y="240" width="100" height="100" as="geometry">
            <mxPoint x="1362" y="340" as="sourcePoint"/>
            <mxPoint x="1462" y="240" as="targetPoint"/>
          </mxGeometry>
        </mxCell>
        <mxCell id="42" value="" style="edgeStyle=elbowEdgeStyle;elbow=vertical;strokeWidth=4;endArrow=block;endFill=1;fontStyle=1;strokeColor=#23445D;" parent="1" source="13" target="14" edge="1">
          <mxGeometry x="1362" y="210" width="100" height="100" as="geometry">
            <mxPoint x="1362" y="310" as="sourcePoint"/>
            <mxPoint x="1462" y="210" as="targetPoint"/>
          </mxGeometry>
        </mxCell>
        <mxCell id="43" value="" style="edgeStyle=elbowEdgeStyle;elbow=vertical;strokeWidth=4;endArrow=block;endFill=1;fontStyle=1;strokeColor=#23445D;" parent="1" source="14" target="15" edge="1">
          <mxGeometry x="1362" y="220" width="100" height="100" as="geometry">
            <mxPoint x="1362" y="320" as="sourcePoint"/>
            <mxPoint x="1462" y="220" as="targetPoint"/>
          </mxGeometry>
        </mxCell>
        <mxCell id="44" value="" style="edgeStyle=elbowEdgeStyle;elbow=vertical;strokeWidth=4;endArrow=block;endFill=1;fontStyle=1;strokeColor=#23445D;" parent="1" source="15" target="16" edge="1">
          <mxGeometry x="1362" y="230" width="100" height="100" as="geometry">
            <mxPoint x="1362" y="330" as="sourcePoint"/>
            <mxPoint x="1462" y="230" as="targetPoint"/>
          </mxGeometry>
        </mxCell>
        <mxCell id="46" value="" style="edgeStyle=elbowEdgeStyle;elbow=vertical;strokeWidth=4;endArrow=block;endFill=1;fontStyle=1;strokeColor=#23445D;" parent="1" source="18" target="19" edge="1">
          <mxGeometry x="1372" y="210" width="100" height="100" as="geometry">
            <mxPoint x="1372" y="310" as="sourcePoint"/>
            <mxPoint x="1472" y="210" as="targetPoint"/>
          </mxGeometry>
        </mxCell>
        <mxCell id="47" value="" style="edgeStyle=elbowEdgeStyle;elbow=vertical;strokeWidth=4;endArrow=block;endFill=1;fontStyle=1;strokeColor=#23445D;" parent="1" source="19" target="20" edge="1">
          <mxGeometry x="1372" y="220" width="100" height="100" as="geometry">
            <mxPoint x="1372" y="320" as="sourcePoint"/>
            <mxPoint x="1472" y="220" as="targetPoint"/>
          </mxGeometry>
        </mxCell>
        <mxCell id="48" value="" style="edgeStyle=elbowEdgeStyle;elbow=vertical;strokeWidth=4;endArrow=block;endFill=1;fontStyle=1;strokeColor=#23445D;" parent="1" source="20" target="21" edge="1">
          <mxGeometry x="1372" y="230" width="100" height="100" as="geometry">
            <mxPoint x="1372" y="330" as="sourcePoint"/>
            <mxPoint x="1472" y="230" as="targetPoint"/>
          </mxGeometry>
        </mxCell>
        <mxCell id="49" value="" style="edgeStyle=elbowEdgeStyle;elbow=vertical;strokeWidth=4;endArrow=block;endFill=1;fontStyle=1;strokeColor=#23445D;" parent="1" source="21" target="22" edge="1">
          <mxGeometry x="1372" y="240" width="100" height="100" as="geometry">
            <mxPoint x="1372" y="340" as="sourcePoint"/>
            <mxPoint x="1472" y="240" as="targetPoint"/>
          </mxGeometry>
        </mxCell>
        <mxCell id="50" value="" style="edgeStyle=elbowEdgeStyle;elbow=vertical;strokeWidth=4;endArrow=block;endFill=1;fontStyle=1;strokeColor=#23445D;" parent="1" source="23" target="24" edge="1">
          <mxGeometry x="1372" y="210" width="100" height="100" as="geometry">
            <mxPoint x="1372" y="310" as="sourcePoint"/>
            <mxPoint x="1472" y="210" as="targetPoint"/>
          </mxGeometry>
        </mxCell>
        <mxCell id="51" value="" style="edgeStyle=elbowEdgeStyle;elbow=vertical;strokeWidth=4;endArrow=block;endFill=1;fontStyle=1;strokeColor=#23445D;" parent="1" source="24" target="25" edge="1">
          <mxGeometry x="1372" y="220" width="100" height="100" as="geometry">
            <mxPoint x="1372" y="320" as="sourcePoint"/>
            <mxPoint x="1472" y="220" as="targetPoint"/>
          </mxGeometry>
        </mxCell>
        <mxCell id="52" value="" style="edgeStyle=elbowEdgeStyle;elbow=vertical;strokeWidth=4;endArrow=block;endFill=1;fontStyle=1;strokeColor=#23445D;" parent="1" source="25" target="26" edge="1">
          <mxGeometry x="1372" y="230" width="100" height="100" as="geometry">
            <mxPoint x="1372" y="330" as="sourcePoint"/>
            <mxPoint x="1472" y="230" as="targetPoint"/>
          </mxGeometry>
        </mxCell>
        <mxCell id="53" value="" style="edgeStyle=elbowEdgeStyle;elbow=vertical;strokeWidth=4;endArrow=block;endFill=1;fontStyle=1;strokeColor=#23445D;" parent="1" source="26" target="27" edge="1">
          <mxGeometry x="1372" y="240" width="100" height="100" as="geometry">
            <mxPoint x="1372" y="340" as="sourcePoint"/>
            <mxPoint x="1472" y="240" as="targetPoint"/>
          </mxGeometry>
        </mxCell>
        <mxCell id="54" value="" style="edgeStyle=elbowEdgeStyle;elbow=vertical;strokeWidth=4;endArrow=block;endFill=1;fontStyle=1;strokeColor=#23445D;" parent="1" source="3" target="13" edge="1">
          <mxGeometry x="1322" y="210" width="100" height="100" as="geometry">
            <mxPoint x="1322" y="310" as="sourcePoint"/>
            <mxPoint x="1422" y="210" as="targetPoint"/>
            <Array as="points">
              <mxPoint x="1952" y="600"/>
            </Array>
          </mxGeometry>
        </mxCell>
        <mxCell id="55" value="" style="edgeStyle=elbowEdgeStyle;elbow=vertical;strokeWidth=4;endArrow=block;endFill=1;fontStyle=1;strokeColor=#23445D;" parent="1" source="3" target="18" edge="1">
          <mxGeometry x="1322" y="210" width="100" height="100" as="geometry">
            <mxPoint x="1322" y="310" as="sourcePoint"/>
            <mxPoint x="1422" y="210" as="targetPoint"/>
            <Array as="points">
              <mxPoint x="2242" y="600"/>
            </Array>
          </mxGeometry>
        </mxCell>
        <mxCell id="9kmUV-Nuid6od0xvwmj_-55" value="都市" style="rounded=1;fillColor=#10739E;strokeColor=none;shadow=1;gradientColor=none;fontStyle=1;fontColor=#FFFFFF;fontSize=14;" parent="1" vertex="1">
          <mxGeometry x="540" y="2780" width="200" height="60" as="geometry"/>
        </mxCell>
        <mxCell id="9kmUV-Nuid6od0xvwmj_-56" value="机械大厦 核心操控" style="rounded=1;fillColor=#10739E;strokeColor=none;shadow=1;gradientColor=none;fontStyle=1;fontColor=#FFFFFF;fontSize=14;" parent="1" vertex="1">
          <mxGeometry x="530" y="2920" width="220" height="60" as="geometry"/>
        </mxCell>
        <mxCell id="9kmUV-Nuid6od0xvwmj_-57" value="闹市暗角" style="rounded=1;fillColor=#10739E;strokeColor=none;shadow=1;gradientColor=none;fontStyle=1;fontColor=#FFFFFF;fontSize=14;" parent="1" vertex="1">
          <mxGeometry x="180" y="3030" width="200" height="60" as="geometry"/>
        </mxCell>
        <mxCell id="9kmUV-Nuid6od0xvwmj_-58" value="秘密基地" style="rounded=1;fillColor=#10739E;strokeColor=none;shadow=1;gradientColor=none;fontStyle=1;fontColor=#FFFFFF;fontSize=14;" parent="1" vertex="1">
          <mxGeometry x="452" y="3030" width="200" height="60" as="geometry"/>
        </mxCell>
        <mxCell id="9kmUV-Nuid6od0xvwmj_-59" value="虫神" style="rounded=1;fillColor=#10739E;strokeColor=none;shadow=1;gradientColor=none;fontStyle=1;fontColor=#FFFFFF;fontSize=14;" parent="1" vertex="1">
          <mxGeometry x="740" y="3030" width="200" height="60" as="geometry"/>
        </mxCell>
        <mxCell id="9kmUV-Nuid6od0xvwmj_-60" value="外星光能" style="rounded=1;fillColor=#10739E;strokeColor=none;shadow=1;gradientColor=none;fontStyle=1;fontColor=#FFFFFF;fontSize=14;" parent="1" vertex="1">
          <mxGeometry x="1140" y="3030" width="200" height="60" as="geometry"/>
        </mxCell>
        <mxCell id="9kmUV-Nuid6od0xvwmj_-61" value="人群多" style="rounded=1;fillColor=#10739E;strokeColor=none;shadow=1;gradientColor=none;fontStyle=1;fontColor=#FFFFFF;fontSize=14;" parent="1" vertex="1">
          <mxGeometry x="150" y="3200" width="200" height="60" as="geometry"/>
        </mxCell>
        <mxCell id="9kmUV-Nuid6od0xvwmj_-62" value="酒吧" style="rounded=1;fillColor=#10739E;strokeColor=none;shadow=1;gradientColor=none;fontStyle=1;fontColor=#FFFFFF;fontSize=14;" parent="1" vertex="1">
          <mxGeometry x="150" y="3280" width="200" height="60" as="geometry"/>
        </mxCell>
        <mxCell id="9kmUV-Nuid6od0xvwmj_-63" value="学校" style="rounded=1;fillColor=#10739E;strokeColor=none;shadow=1;gradientColor=none;fontStyle=1;fontColor=#FFFFFF;fontSize=14;" parent="1" vertex="1">
          <mxGeometry x="150" y="3370" width="200" height="60" as="geometry"/>
        </mxCell>
        <mxCell id="9kmUV-Nuid6od0xvwmj_-64" value="医院" style="rounded=1;fillColor=#10739E;strokeColor=none;shadow=1;gradientColor=none;fontStyle=1;fontColor=#FFFFFF;fontSize=14;" parent="1" vertex="1">
          <mxGeometry x="150" y="3460" width="200" height="60" as="geometry"/>
        </mxCell>
        <mxCell id="9kmUV-Nuid6od0xvwmj_-65" value="博物馆" style="rounded=1;fillColor=#10739E;strokeColor=none;shadow=1;gradientColor=none;fontStyle=1;fontColor=#FFFFFF;fontSize=14;" parent="1" vertex="1">
          <mxGeometry x="150" y="3550" width="200" height="60" as="geometry"/>
        </mxCell>
        <mxCell id="9kmUV-Nuid6od0xvwmj_-66" value="人群稀少" style="rounded=1;fillColor=#10739E;strokeColor=none;shadow=1;gradientColor=none;fontStyle=1;fontColor=#FFFFFF;fontSize=14;" parent="1" vertex="1">
          <mxGeometry x="420" y="3190" width="200" height="60" as="geometry"/>
        </mxCell>
        <mxCell id="9kmUV-Nuid6od0xvwmj_-67" value="实验室" style="rounded=1;fillColor=#10739E;strokeColor=none;shadow=1;gradientColor=none;fontStyle=1;fontColor=#FFFFFF;fontSize=14;" parent="1" vertex="1">
          <mxGeometry x="420" y="3280" width="200" height="60" as="geometry"/>
        </mxCell>
        <mxCell id="9kmUV-Nuid6od0xvwmj_-68" value="仓库" style="rounded=1;fillColor=#10739E;strokeColor=none;shadow=1;gradientColor=none;fontStyle=1;fontColor=#FFFFFF;fontSize=14;" parent="1" vertex="1">
          <mxGeometry x="420" y="3370" width="200" height="60" as="geometry"/>
        </mxCell>
        <mxCell id="9kmUV-Nuid6od0xvwmj_-154" value="" style="edgeStyle=orthogonalEdgeStyle;rounded=0;orthogonalLoop=1;jettySize=auto;html=1;" parent="1" source="9kmUV-Nuid6od0xvwmj_-69" target="9kmUV-Nuid6od0xvwmj_-153" edge="1">
          <mxGeometry relative="1" as="geometry"/>
        </mxCell>
        <mxCell id="9kmUV-Nuid6od0xvwmj_-69" value="鬼市" style="rounded=1;fillColor=#10739E;strokeColor=none;shadow=1;gradientColor=none;fontStyle=1;fontColor=#FFFFFF;fontSize=14;" parent="1" vertex="1">
          <mxGeometry x="420" y="3460" width="200" height="60" as="geometry"/>
        </mxCell>
        <mxCell id="9kmUV-Nuid6od0xvwmj_-153" value="训练场" style="rounded=1;fillColor=#10739E;strokeColor=none;shadow=1;gradientColor=none;fontStyle=1;fontColor=#FFFFFF;fontSize=14;" parent="1" vertex="1">
          <mxGeometry x="420" y="3560" width="200" height="60" as="geometry"/>
        </mxCell>
        <mxCell id="9kmUV-Nuid6od0xvwmj_-70" value="大场面" style="rounded=1;fillColor=#10739E;strokeColor=none;shadow=1;gradientColor=none;fontStyle=1;fontColor=#FFFFFF;fontSize=14;" parent="1" vertex="1">
          <mxGeometry x="710" y="3190" width="200" height="60" as="geometry"/>
        </mxCell>
        <mxCell id="9kmUV-Nuid6od0xvwmj_-71" value="万人法会" style="rounded=1;fillColor=#10739E;strokeColor=none;shadow=1;gradientColor=none;fontStyle=1;fontColor=#FFFFFF;fontSize=14;" parent="1" vertex="1">
          <mxGeometry x="710" y="3280" width="200" height="60" as="geometry"/>
        </mxCell>
        <mxCell id="9kmUV-Nuid6od0xvwmj_-72" value="示威游行" style="rounded=1;fillColor=#10739E;strokeColor=none;shadow=1;gradientColor=none;fontStyle=1;fontColor=#FFFFFF;fontSize=14;" parent="1" vertex="1">
          <mxGeometry x="710" y="3370" width="200" height="60" as="geometry"/>
        </mxCell>
        <mxCell id="9kmUV-Nuid6od0xvwmj_-105" value="" style="edgeStyle=orthogonalEdgeStyle;rounded=0;orthogonalLoop=1;jettySize=auto;html=1;" parent="1" source="9kmUV-Nuid6od0xvwmj_-73" target="9kmUV-Nuid6od0xvwmj_-104" edge="1">
          <mxGeometry relative="1" as="geometry"/>
        </mxCell>
        <mxCell id="9kmUV-Nuid6od0xvwmj_-73" value="球场" style="rounded=1;fillColor=#10739E;strokeColor=none;shadow=1;gradientColor=none;fontStyle=1;fontColor=#FFFFFF;fontSize=14;" parent="1" vertex="1">
          <mxGeometry x="710" y="3460" width="200" height="60" as="geometry"/>
        </mxCell>
        <mxCell id="9kmUV-Nuid6od0xvwmj_-104" value="明星演出场" style="rounded=1;fillColor=#10739E;strokeColor=none;shadow=1;gradientColor=none;fontStyle=1;fontColor=#FFFFFF;fontSize=14;" parent="1" vertex="1">
          <mxGeometry x="710" y="3570" width="200" height="60" as="geometry"/>
        </mxCell>
        <mxCell id="9kmUV-Nuid6od0xvwmj_-75" value="气候" style="rounded=1;fillColor=#10739E;strokeColor=none;shadow=1;gradientColor=none;fontStyle=1;fontColor=#FFFFFF;fontSize=14;" parent="1" vertex="1">
          <mxGeometry x="960" y="3190" width="200" height="60" as="geometry"/>
        </mxCell>
        <mxCell id="9kmUV-Nuid6od0xvwmj_-76" value="雷雨" style="rounded=1;fillColor=#10739E;strokeColor=none;shadow=1;gradientColor=none;fontStyle=1;fontColor=#FFFFFF;fontSize=14;" parent="1" vertex="1">
          <mxGeometry x="960" y="3280" width="200" height="60" as="geometry"/>
        </mxCell>
        <mxCell id="9kmUV-Nuid6od0xvwmj_-77" value="烈日" style="rounded=1;fillColor=#10739E;strokeColor=none;shadow=1;gradientColor=none;fontStyle=1;fontColor=#FFFFFF;fontSize=14;" parent="1" vertex="1">
          <mxGeometry x="960" y="3370" width="200" height="60" as="geometry"/>
        </mxCell>
        <mxCell id="9kmUV-Nuid6od0xvwmj_-78" value="春日" style="rounded=1;fillColor=#10739E;strokeColor=none;shadow=1;gradientColor=none;fontStyle=1;fontColor=#FFFFFF;fontSize=14;" parent="1" vertex="1">
          <mxGeometry x="960" y="3460" width="200" height="60" as="geometry"/>
        </mxCell>
        <mxCell id="9kmUV-Nuid6od0xvwmj_-79" value="寒冬" style="rounded=1;fillColor=#10739E;strokeColor=none;shadow=1;gradientColor=none;fontStyle=1;fontColor=#FFFFFF;fontSize=14;" parent="1" vertex="1">
          <mxGeometry x="960" y="3550" width="200" height="60" as="geometry"/>
        </mxCell>
        <mxCell id="9kmUV-Nuid6od0xvwmj_-80" value="" style="edgeStyle=elbowEdgeStyle;elbow=vertical;strokeWidth=4;endArrow=block;endFill=1;fontStyle=1;strokeColor=#23445D;" parent="1" source="9kmUV-Nuid6od0xvwmj_-55" target="9kmUV-Nuid6od0xvwmj_-56" edge="1">
          <mxGeometry x="-110" y="2740" width="100" height="100" as="geometry">
            <mxPoint x="-110" y="2840" as="sourcePoint"/>
            <mxPoint x="-10" y="2740" as="targetPoint"/>
          </mxGeometry>
        </mxCell>
        <mxCell id="9kmUV-Nuid6od0xvwmj_-81" value="" style="edgeStyle=elbowEdgeStyle;elbow=vertical;strokeWidth=4;endArrow=block;endFill=1;fontStyle=1;strokeColor=#23445D;" parent="1" source="9kmUV-Nuid6od0xvwmj_-56" target="9kmUV-Nuid6od0xvwmj_-58" edge="1">
          <mxGeometry x="-110" y="2740" width="100" height="100" as="geometry">
            <mxPoint x="-110" y="2840" as="sourcePoint"/>
            <mxPoint x="-10" y="2740" as="targetPoint"/>
          </mxGeometry>
        </mxCell>
        <mxCell id="9kmUV-Nuid6od0xvwmj_-82" value="" style="edgeStyle=elbowEdgeStyle;elbow=vertical;strokeWidth=4;endArrow=block;endFill=1;fontStyle=1;strokeColor=#23445D;" parent="1" source="9kmUV-Nuid6od0xvwmj_-56" target="9kmUV-Nuid6od0xvwmj_-57" edge="1">
          <mxGeometry x="-110" y="2740" width="100" height="100" as="geometry">
            <mxPoint x="-110" y="2840" as="sourcePoint"/>
            <mxPoint x="-10" y="2740" as="targetPoint"/>
          </mxGeometry>
        </mxCell>
        <mxCell id="9kmUV-Nuid6od0xvwmj_-83" value="" style="edgeStyle=elbowEdgeStyle;elbow=vertical;strokeWidth=4;endArrow=block;endFill=1;fontStyle=1;strokeColor=#23445D;" parent="1" source="9kmUV-Nuid6od0xvwmj_-56" target="9kmUV-Nuid6od0xvwmj_-59" edge="1">
          <mxGeometry x="-110" y="2740" width="100" height="100" as="geometry">
            <mxPoint x="-110" y="2840" as="sourcePoint"/>
            <mxPoint x="-10" y="2740" as="targetPoint"/>
          </mxGeometry>
        </mxCell>
        <mxCell id="9kmUV-Nuid6od0xvwmj_-84" value="" style="edgeStyle=elbowEdgeStyle;elbow=vertical;strokeWidth=4;endArrow=block;endFill=1;fontStyle=1;dashed=1;strokeColor=#23445D;" parent="1" source="9kmUV-Nuid6od0xvwmj_-55" target="9kmUV-Nuid6od0xvwmj_-60" edge="1">
          <mxGeometry x="-110" y="2740" width="100" height="100" as="geometry">
            <mxPoint x="-110" y="2840" as="sourcePoint"/>
            <mxPoint x="-10" y="2740" as="targetPoint"/>
            <Array as="points">
              <mxPoint x="930" y="2870"/>
            </Array>
          </mxGeometry>
        </mxCell>
        <mxCell id="9kmUV-Nuid6od0xvwmj_-85" value="" style="edgeStyle=elbowEdgeStyle;elbow=vertical;strokeWidth=4;endArrow=block;endFill=1;fontStyle=1;strokeColor=#23445D;" parent="1" source="9kmUV-Nuid6od0xvwmj_-56" target="9kmUV-Nuid6od0xvwmj_-61" edge="1">
          <mxGeometry x="-110" y="2740" width="100" height="100" as="geometry">
            <mxPoint x="-110" y="2840" as="sourcePoint"/>
            <mxPoint x="-10" y="2740" as="targetPoint"/>
            <Array as="points">
              <mxPoint x="420" y="3130"/>
            </Array>
          </mxGeometry>
        </mxCell>
        <mxCell id="9kmUV-Nuid6od0xvwmj_-86" value="" style="edgeStyle=elbowEdgeStyle;elbow=vertical;strokeWidth=4;endArrow=block;endFill=1;fontStyle=1;strokeColor=#23445D;" parent="1" source="9kmUV-Nuid6od0xvwmj_-56" target="9kmUV-Nuid6od0xvwmj_-75" edge="1">
          <mxGeometry x="-110" y="2740" width="100" height="100" as="geometry">
            <mxPoint x="-110" y="2840" as="sourcePoint"/>
            <mxPoint x="-10" y="2740" as="targetPoint"/>
            <Array as="points">
              <mxPoint x="840" y="3130"/>
            </Array>
          </mxGeometry>
        </mxCell>
        <mxCell id="9kmUV-Nuid6od0xvwmj_-87" value="" style="edgeStyle=elbowEdgeStyle;elbow=vertical;strokeWidth=4;endArrow=block;endFill=1;fontStyle=1;strokeColor=#23445D;" parent="1" source="9kmUV-Nuid6od0xvwmj_-61" target="9kmUV-Nuid6od0xvwmj_-62" edge="1">
          <mxGeometry x="-70" y="2740" width="100" height="100" as="geometry">
            <mxPoint x="-70" y="2840" as="sourcePoint"/>
            <mxPoint x="30" y="2740" as="targetPoint"/>
          </mxGeometry>
        </mxCell>
        <mxCell id="9kmUV-Nuid6od0xvwmj_-88" value="" style="edgeStyle=elbowEdgeStyle;elbow=vertical;strokeWidth=4;endArrow=block;endFill=1;fontStyle=1;strokeColor=#23445D;" parent="1" source="9kmUV-Nuid6od0xvwmj_-62" target="9kmUV-Nuid6od0xvwmj_-63" edge="1">
          <mxGeometry x="-70" y="2750" width="100" height="100" as="geometry">
            <mxPoint x="-70" y="2850" as="sourcePoint"/>
            <mxPoint x="30" y="2750" as="targetPoint"/>
          </mxGeometry>
        </mxCell>
        <mxCell id="9kmUV-Nuid6od0xvwmj_-89" value="" style="edgeStyle=elbowEdgeStyle;elbow=vertical;strokeWidth=4;endArrow=block;endFill=1;fontStyle=1;strokeColor=#23445D;" parent="1" source="9kmUV-Nuid6od0xvwmj_-63" target="9kmUV-Nuid6od0xvwmj_-64" edge="1">
          <mxGeometry x="-70" y="2760" width="100" height="100" as="geometry">
            <mxPoint x="-70" y="2860" as="sourcePoint"/>
            <mxPoint x="30" y="2760" as="targetPoint"/>
          </mxGeometry>
        </mxCell>
        <mxCell id="9kmUV-Nuid6od0xvwmj_-90" value="" style="edgeStyle=elbowEdgeStyle;elbow=vertical;strokeWidth=4;endArrow=block;endFill=1;fontStyle=1;strokeColor=#23445D;" parent="1" source="9kmUV-Nuid6od0xvwmj_-64" target="9kmUV-Nuid6od0xvwmj_-65" edge="1">
          <mxGeometry x="-70" y="2770" width="100" height="100" as="geometry">
            <mxPoint x="-70" y="2870" as="sourcePoint"/>
            <mxPoint x="30" y="2770" as="targetPoint"/>
          </mxGeometry>
        </mxCell>
        <mxCell id="9kmUV-Nuid6od0xvwmj_-91" value="" style="edgeStyle=elbowEdgeStyle;elbow=vertical;strokeWidth=4;endArrow=block;endFill=1;fontStyle=1;strokeColor=#23445D;" parent="1" source="9kmUV-Nuid6od0xvwmj_-66" target="9kmUV-Nuid6od0xvwmj_-67" edge="1">
          <mxGeometry x="-70" y="2740" width="100" height="100" as="geometry">
            <mxPoint x="-70" y="2840" as="sourcePoint"/>
            <mxPoint x="30" y="2740" as="targetPoint"/>
          </mxGeometry>
        </mxCell>
        <mxCell id="9kmUV-Nuid6od0xvwmj_-92" value="" style="edgeStyle=elbowEdgeStyle;elbow=vertical;strokeWidth=4;endArrow=block;endFill=1;fontStyle=1;strokeColor=#23445D;" parent="1" source="9kmUV-Nuid6od0xvwmj_-67" target="9kmUV-Nuid6od0xvwmj_-68" edge="1">
          <mxGeometry x="-70" y="2750" width="100" height="100" as="geometry">
            <mxPoint x="-70" y="2850" as="sourcePoint"/>
            <mxPoint x="30" y="2750" as="targetPoint"/>
          </mxGeometry>
        </mxCell>
        <mxCell id="9kmUV-Nuid6od0xvwmj_-93" value="" style="edgeStyle=elbowEdgeStyle;elbow=vertical;strokeWidth=4;endArrow=block;endFill=1;fontStyle=1;strokeColor=#23445D;" parent="1" source="9kmUV-Nuid6od0xvwmj_-68" target="9kmUV-Nuid6od0xvwmj_-69" edge="1">
          <mxGeometry x="-70" y="2760" width="100" height="100" as="geometry">
            <mxPoint x="-70" y="2860" as="sourcePoint"/>
            <mxPoint x="30" y="2760" as="targetPoint"/>
          </mxGeometry>
        </mxCell>
        <mxCell id="9kmUV-Nuid6od0xvwmj_-94" value="" style="edgeStyle=elbowEdgeStyle;elbow=vertical;strokeWidth=4;endArrow=block;endFill=1;fontStyle=1;strokeColor=#23445D;" parent="1" source="9kmUV-Nuid6od0xvwmj_-70" target="9kmUV-Nuid6od0xvwmj_-71" edge="1">
          <mxGeometry x="-60" y="2740" width="100" height="100" as="geometry">
            <mxPoint x="-60" y="2840" as="sourcePoint"/>
            <mxPoint x="40" y="2740" as="targetPoint"/>
          </mxGeometry>
        </mxCell>
        <mxCell id="9kmUV-Nuid6od0xvwmj_-95" value="" style="edgeStyle=elbowEdgeStyle;elbow=vertical;strokeWidth=4;endArrow=block;endFill=1;fontStyle=1;strokeColor=#23445D;" parent="1" source="9kmUV-Nuid6od0xvwmj_-71" target="9kmUV-Nuid6od0xvwmj_-72" edge="1">
          <mxGeometry x="-60" y="2750" width="100" height="100" as="geometry">
            <mxPoint x="-60" y="2850" as="sourcePoint"/>
            <mxPoint x="40" y="2750" as="targetPoint"/>
          </mxGeometry>
        </mxCell>
        <mxCell id="9kmUV-Nuid6od0xvwmj_-96" value="" style="edgeStyle=elbowEdgeStyle;elbow=vertical;strokeWidth=4;endArrow=block;endFill=1;fontStyle=1;strokeColor=#23445D;" parent="1" source="9kmUV-Nuid6od0xvwmj_-72" target="9kmUV-Nuid6od0xvwmj_-73" edge="1">
          <mxGeometry x="-60" y="2760" width="100" height="100" as="geometry">
            <mxPoint x="-60" y="2860" as="sourcePoint"/>
            <mxPoint x="40" y="2760" as="targetPoint"/>
          </mxGeometry>
        </mxCell>
        <mxCell id="9kmUV-Nuid6od0xvwmj_-97" value="" style="edgeStyle=elbowEdgeStyle;elbow=vertical;strokeWidth=4;endArrow=block;endFill=1;fontStyle=1;strokeColor=#23445D;" parent="1" source="9kmUV-Nuid6od0xvwmj_-73" edge="1">
          <mxGeometry x="-60" y="2770" width="100" height="100" as="geometry">
            <mxPoint x="-60" y="2870" as="sourcePoint"/>
            <mxPoint x="810" y="3549.9999999999995" as="targetPoint"/>
          </mxGeometry>
        </mxCell>
        <mxCell id="9kmUV-Nuid6od0xvwmj_-98" value="" style="edgeStyle=elbowEdgeStyle;elbow=vertical;strokeWidth=4;endArrow=block;endFill=1;fontStyle=1;strokeColor=#23445D;" parent="1" source="9kmUV-Nuid6od0xvwmj_-75" target="9kmUV-Nuid6od0xvwmj_-76" edge="1">
          <mxGeometry x="-60" y="2740" width="100" height="100" as="geometry">
            <mxPoint x="-60" y="2840" as="sourcePoint"/>
            <mxPoint x="40" y="2740" as="targetPoint"/>
          </mxGeometry>
        </mxCell>
        <mxCell id="9kmUV-Nuid6od0xvwmj_-99" value="" style="edgeStyle=elbowEdgeStyle;elbow=vertical;strokeWidth=4;endArrow=block;endFill=1;fontStyle=1;strokeColor=#23445D;" parent="1" source="9kmUV-Nuid6od0xvwmj_-76" target="9kmUV-Nuid6od0xvwmj_-77" edge="1">
          <mxGeometry x="-60" y="2750" width="100" height="100" as="geometry">
            <mxPoint x="-60" y="2850" as="sourcePoint"/>
            <mxPoint x="40" y="2750" as="targetPoint"/>
          </mxGeometry>
        </mxCell>
        <mxCell id="9kmUV-Nuid6od0xvwmj_-100" value="" style="edgeStyle=elbowEdgeStyle;elbow=vertical;strokeWidth=4;endArrow=block;endFill=1;fontStyle=1;strokeColor=#23445D;" parent="1" source="9kmUV-Nuid6od0xvwmj_-77" target="9kmUV-Nuid6od0xvwmj_-78" edge="1">
          <mxGeometry x="-60" y="2760" width="100" height="100" as="geometry">
            <mxPoint x="-60" y="2860" as="sourcePoint"/>
            <mxPoint x="40" y="2760" as="targetPoint"/>
          </mxGeometry>
        </mxCell>
        <mxCell id="9kmUV-Nuid6od0xvwmj_-101" value="" style="edgeStyle=elbowEdgeStyle;elbow=vertical;strokeWidth=4;endArrow=block;endFill=1;fontStyle=1;strokeColor=#23445D;" parent="1" source="9kmUV-Nuid6od0xvwmj_-78" target="9kmUV-Nuid6od0xvwmj_-79" edge="1">
          <mxGeometry x="-60" y="2770" width="100" height="100" as="geometry">
            <mxPoint x="-60" y="2870" as="sourcePoint"/>
            <mxPoint x="40" y="2770" as="targetPoint"/>
          </mxGeometry>
        </mxCell>
        <mxCell id="9kmUV-Nuid6od0xvwmj_-102" value="" style="edgeStyle=elbowEdgeStyle;elbow=vertical;strokeWidth=4;endArrow=block;endFill=1;fontStyle=1;strokeColor=#23445D;" parent="1" source="9kmUV-Nuid6od0xvwmj_-56" target="9kmUV-Nuid6od0xvwmj_-66" edge="1">
          <mxGeometry x="-110" y="2740" width="100" height="100" as="geometry">
            <mxPoint x="-110" y="2840" as="sourcePoint"/>
            <mxPoint x="-10" y="2740" as="targetPoint"/>
            <Array as="points">
              <mxPoint x="520" y="3130"/>
            </Array>
          </mxGeometry>
        </mxCell>
        <mxCell id="9kmUV-Nuid6od0xvwmj_-103" value="" style="edgeStyle=elbowEdgeStyle;elbow=vertical;strokeWidth=4;endArrow=block;endFill=1;fontStyle=1;strokeColor=#23445D;" parent="1" source="9kmUV-Nuid6od0xvwmj_-56" target="9kmUV-Nuid6od0xvwmj_-70" edge="1">
          <mxGeometry x="-110" y="2740" width="100" height="100" as="geometry">
            <mxPoint x="-110" y="2840" as="sourcePoint"/>
            <mxPoint x="-10" y="2740" as="targetPoint"/>
            <Array as="points">
              <mxPoint x="810" y="3130"/>
            </Array>
          </mxGeometry>
        </mxCell>
        <mxCell id="9kmUV-Nuid6od0xvwmj_-108" value="" style="edgeStyle=orthogonalEdgeStyle;rounded=0;orthogonalLoop=1;jettySize=auto;html=1;" parent="1" source="9kmUV-Nuid6od0xvwmj_-106" target="9kmUV-Nuid6od0xvwmj_-107" edge="1">
          <mxGeometry relative="1" as="geometry"/>
        </mxCell>
        <mxCell id="9kmUV-Nuid6od0xvwmj_-110" value="" style="edgeStyle=orthogonalEdgeStyle;rounded=0;orthogonalLoop=1;jettySize=auto;html=1;" parent="1" source="9kmUV-Nuid6od0xvwmj_-106" target="9kmUV-Nuid6od0xvwmj_-109" edge="1">
          <mxGeometry relative="1" as="geometry"/>
        </mxCell>
        <mxCell id="9kmUV-Nuid6od0xvwmj_-106" value="修行家族" style="rounded=1;fillColor=#10739E;strokeColor=none;shadow=1;gradientColor=none;fontStyle=1;fontColor=#FFFFFF;fontSize=14;" parent="1" vertex="1">
          <mxGeometry x="1092" y="1500" width="200" height="60" as="geometry"/>
        </mxCell>
        <mxCell id="9kmUV-Nuid6od0xvwmj_-122" value="" style="edgeStyle=orthogonalEdgeStyle;rounded=0;orthogonalLoop=1;jettySize=auto;html=1;" parent="1" source="9kmUV-Nuid6od0xvwmj_-109" target="9kmUV-Nuid6od0xvwmj_-121" edge="1">
          <mxGeometry relative="1" as="geometry"/>
        </mxCell>
        <mxCell id="9kmUV-Nuid6od0xvwmj_-124" value="" style="edgeStyle=orthogonalEdgeStyle;rounded=0;orthogonalLoop=1;jettySize=auto;html=1;" parent="1" source="9kmUV-Nuid6od0xvwmj_-109" target="9kmUV-Nuid6od0xvwmj_-123" edge="1">
          <mxGeometry relative="1" as="geometry"/>
        </mxCell>
        <mxCell id="9kmUV-Nuid6od0xvwmj_-126" value="" style="edgeStyle=orthogonalEdgeStyle;rounded=0;orthogonalLoop=1;jettySize=auto;html=1;" parent="1" source="9kmUV-Nuid6od0xvwmj_-109" target="9kmUV-Nuid6od0xvwmj_-125" edge="1">
          <mxGeometry relative="1" as="geometry"/>
        </mxCell>
        <mxCell id="9kmUV-Nuid6od0xvwmj_-109" value="旁杂家" style="rounded=1;fillColor=#10739E;strokeColor=none;shadow=1;gradientColor=none;fontStyle=1;fontColor=#FFFFFF;fontSize=14;" parent="1" vertex="1">
          <mxGeometry x="1412" y="1740" width="200" height="60" as="geometry"/>
        </mxCell>
        <mxCell id="9kmUV-Nuid6od0xvwmj_-138" value="" style="edgeStyle=orthogonalEdgeStyle;rounded=0;orthogonalLoop=1;jettySize=auto;html=1;" parent="1" source="9kmUV-Nuid6od0xvwmj_-125" target="9kmUV-Nuid6od0xvwmj_-137" edge="1">
          <mxGeometry relative="1" as="geometry"/>
        </mxCell>
        <mxCell id="9kmUV-Nuid6od0xvwmj_-125" value="千面" style="rounded=1;fillColor=#10739E;strokeColor=none;shadow=1;gradientColor=none;fontStyle=1;fontColor=#FFFFFF;fontSize=14;" parent="1" vertex="1">
          <mxGeometry x="1412" y="2040" width="200" height="60" as="geometry"/>
        </mxCell>
        <mxCell id="9kmUV-Nuid6od0xvwmj_-156" value="" style="edgeStyle=orthogonalEdgeStyle;rounded=0;orthogonalLoop=1;jettySize=auto;html=1;" parent="1" source="9kmUV-Nuid6od0xvwmj_-137" target="9kmUV-Nuid6od0xvwmj_-155" edge="1">
          <mxGeometry relative="1" as="geometry"/>
        </mxCell>
        <mxCell id="9kmUV-Nuid6od0xvwmj_-137" value="说书" style="rounded=1;fillColor=#10739E;strokeColor=none;shadow=1;gradientColor=none;fontStyle=1;fontColor=#FFFFFF;fontSize=14;" parent="1" vertex="1">
          <mxGeometry x="1412" y="2150" width="200" height="60" as="geometry"/>
        </mxCell>
        <mxCell id="9kmUV-Nuid6od0xvwmj_-155" value="" style="rounded=1;fillColor=#10739E;strokeColor=none;shadow=1;gradientColor=none;fontStyle=1;fontColor=#FFFFFF;fontSize=14;" parent="1" vertex="1">
          <mxGeometry x="1412" y="2290" width="200" height="60" as="geometry"/>
        </mxCell>
        <mxCell id="9kmUV-Nuid6od0xvwmj_-123" value="兵法" style="rounded=1;fillColor=#10739E;strokeColor=none;shadow=1;gradientColor=none;fontStyle=1;fontColor=#FFFFFF;fontSize=14;" parent="1" vertex="1">
          <mxGeometry x="1412" y="1940" width="200" height="60" as="geometry"/>
        </mxCell>
        <mxCell id="9kmUV-Nuid6od0xvwmj_-121" value="媚术" style="rounded=1;fillColor=#10739E;strokeColor=none;shadow=1;gradientColor=none;fontStyle=1;fontColor=#FFFFFF;fontSize=14;" parent="1" vertex="1">
          <mxGeometry x="1412" y="1840" width="200" height="60" as="geometry"/>
        </mxCell>
        <mxCell id="9kmUV-Nuid6od0xvwmj_-112" value="" style="edgeStyle=orthogonalEdgeStyle;rounded=0;orthogonalLoop=1;jettySize=auto;html=1;" parent="1" source="9kmUV-Nuid6od0xvwmj_-107" target="9kmUV-Nuid6od0xvwmj_-111" edge="1">
          <mxGeometry relative="1" as="geometry"/>
        </mxCell>
        <mxCell id="9kmUV-Nuid6od0xvwmj_-116" style="edgeStyle=orthogonalEdgeStyle;rounded=0;orthogonalLoop=1;jettySize=auto;html=1;entryX=0.5;entryY=0;entryDx=0;entryDy=0;" parent="1" source="9kmUV-Nuid6od0xvwmj_-107" target="9kmUV-Nuid6od0xvwmj_-117" edge="1">
          <mxGeometry relative="1" as="geometry">
            <mxPoint x="922" y="1740" as="targetPoint"/>
          </mxGeometry>
        </mxCell>
        <mxCell id="9kmUV-Nuid6od0xvwmj_-118" value="" style="edgeStyle=orthogonalEdgeStyle;rounded=0;orthogonalLoop=1;jettySize=auto;html=1;" parent="1" source="9kmUV-Nuid6od0xvwmj_-107" target="9kmUV-Nuid6od0xvwmj_-117" edge="1">
          <mxGeometry relative="1" as="geometry"/>
        </mxCell>
        <mxCell id="9kmUV-Nuid6od0xvwmj_-119" style="edgeStyle=orthogonalEdgeStyle;rounded=0;orthogonalLoop=1;jettySize=auto;html=1;entryX=0.5;entryY=0;entryDx=0;entryDy=0;" parent="1" source="9kmUV-Nuid6od0xvwmj_-107" target="9kmUV-Nuid6od0xvwmj_-120" edge="1">
          <mxGeometry relative="1" as="geometry">
            <mxPoint x="962" y="1760" as="targetPoint"/>
          </mxGeometry>
        </mxCell>
        <mxCell id="9kmUV-Nuid6od0xvwmj_-107" value="主家" style="rounded=1;fillColor=#10739E;strokeColor=none;shadow=1;gradientColor=none;fontStyle=1;fontColor=#FFFFFF;fontSize=14;" parent="1" vertex="1">
          <mxGeometry x="822" y="1620" width="200" height="60" as="geometry"/>
        </mxCell>
        <mxCell id="9kmUV-Nuid6od0xvwmj_-144" value="" style="edgeStyle=orthogonalEdgeStyle;rounded=0;orthogonalLoop=1;jettySize=auto;html=1;" parent="1" source="9kmUV-Nuid6od0xvwmj_-111" target="9kmUV-Nuid6od0xvwmj_-143" edge="1">
          <mxGeometry relative="1" as="geometry"/>
        </mxCell>
        <mxCell id="9kmUV-Nuid6od0xvwmj_-111" value="灵修" style="rounded=1;fillColor=#10739E;strokeColor=none;shadow=1;gradientColor=none;fontStyle=1;fontColor=#FFFFFF;fontSize=14;" parent="1" vertex="1">
          <mxGeometry x="482" y="1680" width="200" height="60" as="geometry"/>
        </mxCell>
        <mxCell id="9kmUV-Nuid6od0xvwmj_-146" value="" style="edgeStyle=orthogonalEdgeStyle;rounded=0;orthogonalLoop=1;jettySize=auto;html=1;" parent="1" source="9kmUV-Nuid6od0xvwmj_-143" target="9kmUV-Nuid6od0xvwmj_-145" edge="1">
          <mxGeometry relative="1" as="geometry"/>
        </mxCell>
        <mxCell id="9kmUV-Nuid6od0xvwmj_-143" value="通灵" style="rounded=1;fillColor=#10739E;strokeColor=none;shadow=1;gradientColor=none;fontStyle=1;fontColor=#FFFFFF;fontSize=14;" parent="1" vertex="1">
          <mxGeometry x="482" y="1820" width="200" height="60" as="geometry"/>
        </mxCell>
        <mxCell id="9kmUV-Nuid6od0xvwmj_-148" value="" style="edgeStyle=orthogonalEdgeStyle;rounded=0;orthogonalLoop=1;jettySize=auto;html=1;" parent="1" source="9kmUV-Nuid6od0xvwmj_-145" target="9kmUV-Nuid6od0xvwmj_-147" edge="1">
          <mxGeometry relative="1" as="geometry"/>
        </mxCell>
        <mxCell id="9kmUV-Nuid6od0xvwmj_-145" value="召唤" style="rounded=1;fillColor=#10739E;strokeColor=none;shadow=1;gradientColor=none;fontStyle=1;fontColor=#FFFFFF;fontSize=14;" parent="1" vertex="1">
          <mxGeometry x="482" y="1960" width="200" height="60" as="geometry"/>
        </mxCell>
        <mxCell id="9kmUV-Nuid6od0xvwmj_-150" value="" style="edgeStyle=orthogonalEdgeStyle;rounded=0;orthogonalLoop=1;jettySize=auto;html=1;" parent="1" source="9kmUV-Nuid6od0xvwmj_-147" target="9kmUV-Nuid6od0xvwmj_-149" edge="1">
          <mxGeometry relative="1" as="geometry"/>
        </mxCell>
        <mxCell id="9kmUV-Nuid6od0xvwmj_-147" value="附魔" style="rounded=1;fillColor=#10739E;strokeColor=none;shadow=1;gradientColor=none;fontStyle=1;fontColor=#FFFFFF;fontSize=14;" parent="1" vertex="1">
          <mxGeometry x="482" y="2100" width="200" height="60" as="geometry"/>
        </mxCell>
        <mxCell id="9kmUV-Nuid6od0xvwmj_-149" value="疗愈" style="rounded=1;fillColor=#10739E;strokeColor=none;shadow=1;gradientColor=none;fontStyle=1;fontColor=#FFFFFF;fontSize=14;" parent="1" vertex="1">
          <mxGeometry x="482" y="2240" width="200" height="60" as="geometry"/>
        </mxCell>
        <mxCell id="9kmUV-Nuid6od0xvwmj_-128" value="" style="edgeStyle=orthogonalEdgeStyle;rounded=0;orthogonalLoop=1;jettySize=auto;html=1;" parent="1" source="9kmUV-Nuid6od0xvwmj_-117" target="9kmUV-Nuid6od0xvwmj_-127" edge="1">
          <mxGeometry relative="1" as="geometry"/>
        </mxCell>
        <mxCell id="9kmUV-Nuid6od0xvwmj_-117" value="玄修" style="rounded=1;fillColor=#10739E;strokeColor=none;shadow=1;gradientColor=none;fontStyle=1;fontColor=#FFFFFF;fontSize=14;" parent="1" vertex="1">
          <mxGeometry x="812" y="1780" width="200" height="60" as="geometry"/>
        </mxCell>
        <mxCell id="9kmUV-Nuid6od0xvwmj_-132" value="" style="edgeStyle=orthogonalEdgeStyle;rounded=0;orthogonalLoop=1;jettySize=auto;html=1;" parent="1" source="9kmUV-Nuid6od0xvwmj_-127" target="9kmUV-Nuid6od0xvwmj_-131" edge="1">
          <mxGeometry relative="1" as="geometry"/>
        </mxCell>
        <mxCell id="9kmUV-Nuid6od0xvwmj_-127" value="占卜" style="rounded=1;fillColor=#10739E;strokeColor=none;shadow=1;gradientColor=none;fontStyle=1;fontColor=#FFFFFF;fontSize=14;" parent="1" vertex="1">
          <mxGeometry x="812" y="1900" width="200" height="60" as="geometry"/>
        </mxCell>
        <mxCell id="9kmUV-Nuid6od0xvwmj_-142" value="" style="edgeStyle=orthogonalEdgeStyle;rounded=0;orthogonalLoop=1;jettySize=auto;html=1;" parent="1" source="9kmUV-Nuid6od0xvwmj_-131" target="9kmUV-Nuid6od0xvwmj_-141" edge="1">
          <mxGeometry relative="1" as="geometry"/>
        </mxCell>
        <mxCell id="9kmUV-Nuid6od0xvwmj_-131" value="道法" style="rounded=1;fillColor=#10739E;strokeColor=none;shadow=1;gradientColor=none;fontStyle=1;fontColor=#FFFFFF;fontSize=14;" parent="1" vertex="1">
          <mxGeometry x="812" y="2020" width="200" height="60" as="geometry"/>
        </mxCell>
        <mxCell id="9kmUV-Nuid6od0xvwmj_-141" value="阵法" style="rounded=1;fillColor=#10739E;strokeColor=none;shadow=1;gradientColor=none;fontStyle=1;fontColor=#FFFFFF;fontSize=14;" parent="1" vertex="1">
          <mxGeometry x="812" y="2160" width="200" height="60" as="geometry"/>
        </mxCell>
        <mxCell id="9kmUV-Nuid6od0xvwmj_-134" value="" style="edgeStyle=orthogonalEdgeStyle;rounded=0;orthogonalLoop=1;jettySize=auto;html=1;" parent="1" source="9kmUV-Nuid6od0xvwmj_-120" target="9kmUV-Nuid6od0xvwmj_-133" edge="1">
          <mxGeometry relative="1" as="geometry"/>
        </mxCell>
        <mxCell id="9kmUV-Nuid6od0xvwmj_-120" value="体修" style="rounded=1;fillColor=#10739E;strokeColor=none;shadow=1;gradientColor=none;fontStyle=1;fontColor=#FFFFFF;fontSize=14;" parent="1" vertex="1">
          <mxGeometry x="1082" y="1750" width="200" height="60" as="geometry"/>
        </mxCell>
        <mxCell id="9kmUV-Nuid6od0xvwmj_-136" value="" style="edgeStyle=orthogonalEdgeStyle;rounded=0;orthogonalLoop=1;jettySize=auto;html=1;" parent="1" source="9kmUV-Nuid6od0xvwmj_-133" target="9kmUV-Nuid6od0xvwmj_-135" edge="1">
          <mxGeometry relative="1" as="geometry"/>
        </mxCell>
        <mxCell id="9kmUV-Nuid6od0xvwmj_-133" value="内家" style="rounded=1;fillColor=#10739E;strokeColor=none;shadow=1;gradientColor=none;fontStyle=1;fontColor=#FFFFFF;fontSize=14;" parent="1" vertex="1">
          <mxGeometry x="1082" y="1890" width="200" height="60" as="geometry"/>
        </mxCell>
        <mxCell id="9kmUV-Nuid6od0xvwmj_-140" value="" style="edgeStyle=orthogonalEdgeStyle;rounded=0;orthogonalLoop=1;jettySize=auto;html=1;" parent="1" source="9kmUV-Nuid6od0xvwmj_-135" target="9kmUV-Nuid6od0xvwmj_-139" edge="1">
          <mxGeometry relative="1" as="geometry"/>
        </mxCell>
        <mxCell id="9kmUV-Nuid6od0xvwmj_-135" value="外家" style="rounded=1;fillColor=#10739E;strokeColor=none;shadow=1;gradientColor=none;fontStyle=1;fontColor=#FFFFFF;fontSize=14;" parent="1" vertex="1">
          <mxGeometry x="1082" y="1990" width="200" height="60" as="geometry"/>
        </mxCell>
        <mxCell id="9kmUV-Nuid6od0xvwmj_-139" value="武器" style="rounded=1;fillColor=#10739E;strokeColor=none;shadow=1;gradientColor=none;fontStyle=1;fontColor=#FFFFFF;fontSize=14;" parent="1" vertex="1">
          <mxGeometry x="1082" y="2130" width="200" height="60" as="geometry"/>
        </mxCell>
        <mxCell id="9kmUV-Nuid6od0xvwmj_-159" value="" style="edgeStyle=orthogonalEdgeStyle;rounded=0;orthogonalLoop=1;jettySize=auto;html=1;" parent="1" source="9kmUV-Nuid6od0xvwmj_-157" target="9kmUV-Nuid6od0xvwmj_-158" edge="1">
          <mxGeometry relative="1" as="geometry"/>
        </mxCell>
        <mxCell id="9kmUV-Nuid6od0xvwmj_-161" value="" style="edgeStyle=orthogonalEdgeStyle;rounded=0;orthogonalLoop=1;jettySize=auto;html=1;" parent="1" source="9kmUV-Nuid6od0xvwmj_-157" target="9kmUV-Nuid6od0xvwmj_-160" edge="1">
          <mxGeometry relative="1" as="geometry"/>
        </mxCell>
        <mxCell id="9kmUV-Nuid6od0xvwmj_-163" value="" style="edgeStyle=orthogonalEdgeStyle;rounded=0;orthogonalLoop=1;jettySize=auto;html=1;" parent="1" source="9kmUV-Nuid6od0xvwmj_-157" target="9kmUV-Nuid6od0xvwmj_-162" edge="1">
          <mxGeometry relative="1" as="geometry"/>
        </mxCell>
        <mxCell id="9kmUV-Nuid6od0xvwmj_-157" value="机械家族" style="rounded=1;fillColor=#10739E;strokeColor=none;shadow=1;gradientColor=none;fontStyle=1;fontColor=#FFFFFF;fontSize=14;" parent="1" vertex="1">
          <mxGeometry x="2162" y="1440" width="200" height="60" as="geometry"/>
        </mxCell>
        <mxCell id="9kmUV-Nuid6od0xvwmj_-165" value="" style="edgeStyle=orthogonalEdgeStyle;rounded=0;orthogonalLoop=1;jettySize=auto;html=1;" parent="1" source="9kmUV-Nuid6od0xvwmj_-162" target="9kmUV-Nuid6od0xvwmj_-164" edge="1">
          <mxGeometry relative="1" as="geometry"/>
        </mxCell>
        <mxCell id="9kmUV-Nuid6od0xvwmj_-162" value="信息" style="rounded=1;fillColor=#10739E;strokeColor=none;shadow=1;gradientColor=none;fontStyle=1;fontColor=#FFFFFF;fontSize=14;" parent="1" vertex="1">
          <mxGeometry x="1882" y="1580" width="200" height="60" as="geometry"/>
        </mxCell>
        <mxCell id="9kmUV-Nuid6od0xvwmj_-190" value="" style="edgeStyle=orthogonalEdgeStyle;rounded=0;orthogonalLoop=1;jettySize=auto;html=1;" parent="1" source="9kmUV-Nuid6od0xvwmj_-164" target="9kmUV-Nuid6od0xvwmj_-189" edge="1">
          <mxGeometry relative="1" as="geometry"/>
        </mxCell>
        <mxCell id="9kmUV-Nuid6od0xvwmj_-164" value="AI" style="rounded=1;fillColor=#10739E;strokeColor=none;shadow=1;gradientColor=none;fontStyle=1;fontColor=#FFFFFF;fontSize=14;" parent="1" vertex="1">
          <mxGeometry x="1882" y="1720" width="200" height="60" as="geometry"/>
        </mxCell>
        <mxCell id="9kmUV-Nuid6od0xvwmj_-192" value="" style="edgeStyle=orthogonalEdgeStyle;rounded=0;orthogonalLoop=1;jettySize=auto;html=1;" parent="1" source="9kmUV-Nuid6od0xvwmj_-189" target="9kmUV-Nuid6od0xvwmj_-191" edge="1">
          <mxGeometry relative="1" as="geometry"/>
        </mxCell>
        <mxCell id="9kmUV-Nuid6od0xvwmj_-189" value="网络" style="rounded=1;fillColor=#10739E;strokeColor=none;shadow=1;gradientColor=none;fontStyle=1;fontColor=#FFFFFF;fontSize=14;" parent="1" vertex="1">
          <mxGeometry x="1882" y="1860" width="200" height="60" as="geometry"/>
        </mxCell>
        <mxCell id="9kmUV-Nuid6od0xvwmj_-194" value="" style="edgeStyle=orthogonalEdgeStyle;rounded=0;orthogonalLoop=1;jettySize=auto;html=1;" parent="1" source="9kmUV-Nuid6od0xvwmj_-191" target="9kmUV-Nuid6od0xvwmj_-193" edge="1">
          <mxGeometry relative="1" as="geometry"/>
        </mxCell>
        <mxCell id="9kmUV-Nuid6od0xvwmj_-191" value="数据" style="rounded=1;fillColor=#10739E;strokeColor=none;shadow=1;gradientColor=none;fontStyle=1;fontColor=#FFFFFF;fontSize=14;" parent="1" vertex="1">
          <mxGeometry x="1882" y="2000" width="200" height="60" as="geometry"/>
        </mxCell>
        <mxCell id="9kmUV-Nuid6od0xvwmj_-193" value="算法" style="rounded=1;fillColor=#10739E;strokeColor=none;shadow=1;gradientColor=none;fontStyle=1;fontColor=#FFFFFF;fontSize=14;" parent="1" vertex="1">
          <mxGeometry x="1882" y="2110" width="200" height="60" as="geometry"/>
        </mxCell>
        <mxCell id="9kmUV-Nuid6od0xvwmj_-169" value="" style="edgeStyle=orthogonalEdgeStyle;rounded=0;orthogonalLoop=1;jettySize=auto;html=1;" parent="1" source="9kmUV-Nuid6od0xvwmj_-160" target="9kmUV-Nuid6od0xvwmj_-168" edge="1">
          <mxGeometry relative="1" as="geometry"/>
        </mxCell>
        <mxCell id="9kmUV-Nuid6od0xvwmj_-160" value="数学" style="rounded=1;fillColor=#10739E;strokeColor=none;shadow=1;gradientColor=none;fontStyle=1;fontColor=#FFFFFF;fontSize=14;" parent="1" vertex="1">
          <mxGeometry x="2412" y="1580" width="200" height="60" as="geometry"/>
        </mxCell>
        <mxCell id="9kmUV-Nuid6od0xvwmj_-204" value="" style="edgeStyle=orthogonalEdgeStyle;rounded=0;orthogonalLoop=1;jettySize=auto;html=1;" parent="1" source="9kmUV-Nuid6od0xvwmj_-168" target="9kmUV-Nuid6od0xvwmj_-203" edge="1">
          <mxGeometry relative="1" as="geometry"/>
        </mxCell>
        <mxCell id="9kmUV-Nuid6od0xvwmj_-168" value="分形" style="rounded=1;fillColor=#10739E;strokeColor=none;shadow=1;gradientColor=none;fontStyle=1;fontColor=#FFFFFF;fontSize=14;" parent="1" vertex="1">
          <mxGeometry x="2412" y="1720" width="200" height="60" as="geometry"/>
        </mxCell>
        <mxCell id="9kmUV-Nuid6od0xvwmj_-222" value="" style="edgeStyle=orthogonalEdgeStyle;rounded=0;orthogonalLoop=1;jettySize=auto;html=1;" parent="1" source="9kmUV-Nuid6od0xvwmj_-203" target="9kmUV-Nuid6od0xvwmj_-221" edge="1">
          <mxGeometry relative="1" as="geometry"/>
        </mxCell>
        <mxCell id="9kmUV-Nuid6od0xvwmj_-203" value="金融" style="rounded=1;fillColor=#10739E;strokeColor=none;shadow=1;gradientColor=none;fontStyle=1;fontColor=#FFFFFF;fontSize=14;" parent="1" vertex="1">
          <mxGeometry x="2412" y="1860" width="200" height="60" as="geometry"/>
        </mxCell>
        <mxCell id="9kmUV-Nuid6od0xvwmj_-221" value="侦查" style="rounded=1;fillColor=#10739E;strokeColor=none;shadow=1;gradientColor=none;fontStyle=1;fontColor=#FFFFFF;fontSize=14;" parent="1" vertex="1">
          <mxGeometry x="2412" y="2000" width="200" height="60" as="geometry"/>
        </mxCell>
        <mxCell id="9kmUV-Nuid6od0xvwmj_-167" value="" style="edgeStyle=orthogonalEdgeStyle;rounded=0;orthogonalLoop=1;jettySize=auto;html=1;" parent="1" source="9kmUV-Nuid6od0xvwmj_-158" target="9kmUV-Nuid6od0xvwmj_-166" edge="1">
          <mxGeometry relative="1" as="geometry"/>
        </mxCell>
        <mxCell id="9kmUV-Nuid6od0xvwmj_-158" value="物理" style="rounded=1;fillColor=#10739E;strokeColor=none;shadow=1;gradientColor=none;fontStyle=1;fontColor=#FFFFFF;fontSize=14;" parent="1" vertex="1">
          <mxGeometry x="2162" y="1580" width="200" height="60" as="geometry"/>
        </mxCell>
        <mxCell id="9kmUV-Nuid6od0xvwmj_-198" value="" style="edgeStyle=orthogonalEdgeStyle;rounded=0;orthogonalLoop=1;jettySize=auto;html=1;" parent="1" source="9kmUV-Nuid6od0xvwmj_-166" target="9kmUV-Nuid6od0xvwmj_-197" edge="1">
          <mxGeometry relative="1" as="geometry"/>
        </mxCell>
        <mxCell id="9kmUV-Nuid6od0xvwmj_-166" value="量子" style="rounded=1;fillColor=#10739E;strokeColor=none;shadow=1;gradientColor=none;fontStyle=1;fontColor=#FFFFFF;fontSize=14;" parent="1" vertex="1">
          <mxGeometry x="2162" y="1700" width="200" height="60" as="geometry"/>
        </mxCell>
        <mxCell id="9kmUV-Nuid6od0xvwmj_-200" value="" style="edgeStyle=orthogonalEdgeStyle;rounded=0;orthogonalLoop=1;jettySize=auto;html=1;" parent="1" source="9kmUV-Nuid6od0xvwmj_-197" target="9kmUV-Nuid6od0xvwmj_-199" edge="1">
          <mxGeometry relative="1" as="geometry"/>
        </mxCell>
        <mxCell id="9kmUV-Nuid6od0xvwmj_-197" value="武器" style="rounded=1;fillColor=#10739E;strokeColor=none;shadow=1;gradientColor=none;fontStyle=1;fontColor=#FFFFFF;fontSize=14;" parent="1" vertex="1">
          <mxGeometry x="2162" y="1840" width="200" height="60" as="geometry"/>
        </mxCell>
        <mxCell id="9kmUV-Nuid6od0xvwmj_-224" value="" style="edgeStyle=orthogonalEdgeStyle;rounded=0;orthogonalLoop=1;jettySize=auto;html=1;" parent="1" source="9kmUV-Nuid6od0xvwmj_-199" target="9kmUV-Nuid6od0xvwmj_-223" edge="1">
          <mxGeometry relative="1" as="geometry"/>
        </mxCell>
        <mxCell id="9kmUV-Nuid6od0xvwmj_-199" value="能源" style="rounded=1;fillColor=#10739E;strokeColor=none;shadow=1;gradientColor=none;fontStyle=1;fontColor=#FFFFFF;fontSize=14;" parent="1" vertex="1">
          <mxGeometry x="2162" y="1980" width="200" height="60" as="geometry"/>
        </mxCell>
        <mxCell id="9kmUV-Nuid6od0xvwmj_-223" value="建造" style="rounded=1;fillColor=#10739E;strokeColor=none;shadow=1;gradientColor=none;fontStyle=1;fontColor=#FFFFFF;fontSize=14;" parent="1" vertex="1">
          <mxGeometry x="2162" y="2100" width="200" height="60" as="geometry"/>
        </mxCell>
        <mxCell id="9kmUV-Nuid6od0xvwmj_-179" value="" style="edgeStyle=orthogonalEdgeStyle;rounded=0;orthogonalLoop=1;jettySize=auto;html=1;" parent="1" source="9kmUV-Nuid6od0xvwmj_-182" target="9kmUV-Nuid6od0xvwmj_-186" edge="1">
          <mxGeometry relative="1" as="geometry"/>
        </mxCell>
        <mxCell id="9kmUV-Nuid6od0xvwmj_-180" value="" style="edgeStyle=orthogonalEdgeStyle;rounded=0;orthogonalLoop=1;jettySize=auto;html=1;" parent="1" source="9kmUV-Nuid6od0xvwmj_-182" target="9kmUV-Nuid6od0xvwmj_-184" edge="1">
          <mxGeometry relative="1" as="geometry"/>
        </mxCell>
        <mxCell id="9kmUV-Nuid6od0xvwmj_-181" value="" style="edgeStyle=orthogonalEdgeStyle;rounded=0;orthogonalLoop=1;jettySize=auto;html=1;" parent="1" source="9kmUV-Nuid6od0xvwmj_-182" target="9kmUV-Nuid6od0xvwmj_-183" edge="1">
          <mxGeometry relative="1" as="geometry"/>
        </mxCell>
        <mxCell id="9kmUV-Nuid6od0xvwmj_-182" value="外星家族" style="rounded=1;fillColor=#10739E;strokeColor=none;shadow=1;gradientColor=none;fontStyle=1;fontColor=#FFFFFF;fontSize=14;" parent="1" vertex="1">
          <mxGeometry x="3012" y="1450" width="200" height="60" as="geometry"/>
        </mxCell>
        <mxCell id="9kmUV-Nuid6od0xvwmj_-206" value="" style="edgeStyle=orthogonalEdgeStyle;rounded=0;orthogonalLoop=1;jettySize=auto;html=1;" parent="1" source="9kmUV-Nuid6od0xvwmj_-183" target="9kmUV-Nuid6od0xvwmj_-205" edge="1">
          <mxGeometry relative="1" as="geometry"/>
        </mxCell>
        <mxCell id="9kmUV-Nuid6od0xvwmj_-183" value="天女" style="rounded=1;fillColor=#10739E;strokeColor=none;shadow=1;gradientColor=none;fontStyle=1;fontColor=#FFFFFF;fontSize=14;" parent="1" vertex="1">
          <mxGeometry x="3252" y="1590" width="200" height="60" as="geometry"/>
        </mxCell>
        <mxCell id="9kmUV-Nuid6od0xvwmj_-216" value="" style="edgeStyle=orthogonalEdgeStyle;rounded=0;orthogonalLoop=1;jettySize=auto;html=1;" parent="1" source="9kmUV-Nuid6od0xvwmj_-205" target="9kmUV-Nuid6od0xvwmj_-215" edge="1">
          <mxGeometry relative="1" as="geometry"/>
        </mxCell>
        <mxCell id="9kmUV-Nuid6od0xvwmj_-205" value="撒花" style="rounded=1;fillColor=#10739E;strokeColor=none;shadow=1;gradientColor=none;fontStyle=1;fontColor=#FFFFFF;fontSize=14;" parent="1" vertex="1">
          <mxGeometry x="3252" y="1730" width="200" height="60" as="geometry"/>
        </mxCell>
        <mxCell id="9kmUV-Nuid6od0xvwmj_-218" value="" style="edgeStyle=orthogonalEdgeStyle;rounded=0;orthogonalLoop=1;jettySize=auto;html=1;" parent="1" source="9kmUV-Nuid6od0xvwmj_-215" target="9kmUV-Nuid6od0xvwmj_-217" edge="1">
          <mxGeometry relative="1" as="geometry"/>
        </mxCell>
        <mxCell id="9kmUV-Nuid6od0xvwmj_-215" value="舞蹈" style="rounded=1;fillColor=#10739E;strokeColor=none;shadow=1;gradientColor=none;fontStyle=1;fontColor=#FFFFFF;fontSize=14;" parent="1" vertex="1">
          <mxGeometry x="3252" y="1870" width="200" height="60" as="geometry"/>
        </mxCell>
        <mxCell id="9kmUV-Nuid6od0xvwmj_-217" value="音律" style="rounded=1;fillColor=#10739E;strokeColor=none;shadow=1;gradientColor=none;fontStyle=1;fontColor=#FFFFFF;fontSize=14;" parent="1" vertex="1">
          <mxGeometry x="3252" y="2010" width="200" height="60" as="geometry"/>
        </mxCell>
        <mxCell id="9kmUV-Nuid6od0xvwmj_-208" value="" style="edgeStyle=orthogonalEdgeStyle;rounded=0;orthogonalLoop=1;jettySize=auto;html=1;" parent="1" source="9kmUV-Nuid6od0xvwmj_-184" target="9kmUV-Nuid6od0xvwmj_-207" edge="1">
          <mxGeometry relative="1" as="geometry"/>
        </mxCell>
        <mxCell id="9kmUV-Nuid6od0xvwmj_-184" value="萌妹" style="rounded=1;fillColor=#10739E;strokeColor=none;shadow=1;gradientColor=none;fontStyle=1;fontColor=#FFFFFF;fontSize=14;" parent="1" vertex="1">
          <mxGeometry x="3012" y="1590" width="200" height="60" as="geometry"/>
        </mxCell>
        <mxCell id="9kmUV-Nuid6od0xvwmj_-214" value="" style="edgeStyle=orthogonalEdgeStyle;rounded=0;orthogonalLoop=1;jettySize=auto;html=1;" parent="1" source="9kmUV-Nuid6od0xvwmj_-207" target="9kmUV-Nuid6od0xvwmj_-213" edge="1">
          <mxGeometry relative="1" as="geometry"/>
        </mxCell>
        <mxCell id="9kmUV-Nuid6od0xvwmj_-207" value="完美" style="rounded=1;fillColor=#10739E;strokeColor=none;shadow=1;gradientColor=none;fontStyle=1;fontColor=#FFFFFF;fontSize=14;" parent="1" vertex="1">
          <mxGeometry x="3012" y="1730" width="200" height="60" as="geometry"/>
        </mxCell>
        <mxCell id="9kmUV-Nuid6od0xvwmj_-220" value="" style="edgeStyle=orthogonalEdgeStyle;rounded=0;orthogonalLoop=1;jettySize=auto;html=1;" parent="1" source="9kmUV-Nuid6od0xvwmj_-213" target="9kmUV-Nuid6od0xvwmj_-219" edge="1">
          <mxGeometry relative="1" as="geometry"/>
        </mxCell>
        <mxCell id="9kmUV-Nuid6od0xvwmj_-213" value="御姐" style="rounded=1;fillColor=#10739E;strokeColor=none;shadow=1;gradientColor=none;fontStyle=1;fontColor=#FFFFFF;fontSize=14;" parent="1" vertex="1">
          <mxGeometry x="3012" y="1870" width="200" height="60" as="geometry"/>
        </mxCell>
        <mxCell id="9kmUV-Nuid6od0xvwmj_-219" value="画师" style="rounded=1;fillColor=#10739E;strokeColor=none;shadow=1;gradientColor=none;fontStyle=1;fontColor=#FFFFFF;fontSize=14;" parent="1" vertex="1">
          <mxGeometry x="3012" y="2010" width="200" height="60" as="geometry"/>
        </mxCell>
        <mxCell id="9kmUV-Nuid6od0xvwmj_-185" value="" style="edgeStyle=orthogonalEdgeStyle;rounded=0;orthogonalLoop=1;jettySize=auto;html=1;" parent="1" source="9kmUV-Nuid6od0xvwmj_-186" target="9kmUV-Nuid6od0xvwmj_-187" edge="1">
          <mxGeometry relative="1" as="geometry"/>
        </mxCell>
        <mxCell id="9kmUV-Nuid6od0xvwmj_-186" value="神童" style="rounded=1;fillColor=#10739E;strokeColor=none;shadow=1;gradientColor=none;fontStyle=1;fontColor=#FFFFFF;fontSize=14;" parent="1" vertex="1">
          <mxGeometry x="2772" y="1590" width="200" height="60" as="geometry"/>
        </mxCell>
        <mxCell id="9kmUV-Nuid6od0xvwmj_-210" value="" style="edgeStyle=orthogonalEdgeStyle;rounded=0;orthogonalLoop=1;jettySize=auto;html=1;" parent="1" source="9kmUV-Nuid6od0xvwmj_-187" target="9kmUV-Nuid6od0xvwmj_-209" edge="1">
          <mxGeometry relative="1" as="geometry"/>
        </mxCell>
        <mxCell id="9kmUV-Nuid6od0xvwmj_-187" value="预言" style="rounded=1;fillColor=#10739E;strokeColor=none;shadow=1;gradientColor=none;fontStyle=1;fontColor=#FFFFFF;fontSize=14;" parent="1" vertex="1">
          <mxGeometry x="2772" y="1730" width="200" height="60" as="geometry"/>
        </mxCell>
        <mxCell id="9kmUV-Nuid6od0xvwmj_-212" value="" style="edgeStyle=orthogonalEdgeStyle;rounded=0;orthogonalLoop=1;jettySize=auto;html=1;" parent="1" source="9kmUV-Nuid6od0xvwmj_-209" target="9kmUV-Nuid6od0xvwmj_-211" edge="1">
          <mxGeometry relative="1" as="geometry"/>
        </mxCell>
        <mxCell id="9kmUV-Nuid6od0xvwmj_-209" value="无畏" style="rounded=1;fillColor=#10739E;strokeColor=none;shadow=1;gradientColor=none;fontStyle=1;fontColor=#FFFFFF;fontSize=14;" parent="1" vertex="1">
          <mxGeometry x="2772" y="1870" width="200" height="60" as="geometry"/>
        </mxCell>
        <mxCell id="9kmUV-Nuid6od0xvwmj_-211" value="棋手" style="rounded=1;fillColor=#10739E;strokeColor=none;shadow=1;gradientColor=none;fontStyle=1;fontColor=#FFFFFF;fontSize=14;" parent="1" vertex="1">
          <mxGeometry x="2772" y="2010" width="200" height="60" as="geometry"/>
        </mxCell>
        <mxCell id="6Mj-9HSupVZTjmyPNpZT-55" value="" style="ellipse;whiteSpace=wrap;html=1;" vertex="1" parent="1">
          <mxGeometry x="410" y="380" width="120" height="80" as="geometry"/>
        </mxCell>
        <mxCell id="9kmUV-Nuid6od0xvwmj_-226" value="Untitled Layer" parent="0"/>
      </root>
    </mxGraphModel>
  </diagram>
</mxfile>
